<svg enable-background="new 0 0 400 400" height="400" viewBox="0 0 400 400" width="400" xmlns="http://www.w3.org/2000/svg"><path d="m199.6 0c-110.3 0-199.6 89.3-199.6 199.6 0 110.2 89.3 199.6 199.6 199.6 110.2 0 199.6-89.3 199.6-199.6-.1-110.3-89.4-199.6-199.6-199.6zm.4 379.4c-99.1 0-179.4-80.3-179.4-179.4s80.3-179.4 179.4-179.4 179.4 80.3 179.4 179.4-80.3 179.4-179.4 179.4z" fill="#c9c9c9"/><ellipse cx="200" cy="199.8" fill="#fff" rx="179.4" ry="179.2"/><ellipse cx="200" cy="199.8" fill="#fff" rx="179.4" ry="179.2"/><path d="m165.2 138.5v6.9c-.3 1.3-.8 2.6.2 3.7 1.9 5.5 3.5 11.3 10.5 13.6-9.2 2.5-18.3-3.2-24.3-14.3-3.8-3.8-3.7-8.7-3.7-13.6.9-4.2.9-8.4.3-12.7-1.5-.9-1.5-2.4-1.6-3.9-.6-5.7-2.2-11.1-5.1-16-4.5-9-11-15.7-20.6-19.2-2.5-1.5-5.4-1.6-8.1-2.2-6.6-2.9-13-1.2-19.3.9-6.7 2.2-12.8 6-17.4 11.7-.9 1.1-1.9 2.2-3.4 2.6-.9.1-1.4-.4-1.6-1.2 9-14.4 21.5-23.5 38.8-25.2 3.9.5 8-.8 11.9.8 3.2-2.2 6 .2 8.9.8 8.6 1.9 15.2 7.3 21.5 13.3 7.4 6.9 11.9 15.2 13.9 24.9-.2 1.2-.9 2.5.3 3.7.9 1.2.9 2.7.7 4.1-.6 1.9-.5 3.8-.1 5.7.1 1.1.1 2.2-.7 3.1-1.1 1.2-.5 2.4-.2 3.7.2 1.1.1 2.2-.7 3.1-1.1 1.9-.6 3.8-.2 5.7z" fill="#5b245a"/><path d="m72 95.8c5.4-5.7 11-11.2 18.5-14.3 5.8-2.4 11.7-3.4 17.9-3.2 1.8 0 3.5.5 4.6 2.2-.5 1.9-2.3 2.1-3.8 2.6-12.5 3.9-20.3 12.4-23.9 24.9-.4 1.2-.6 2.5-1.7 3.4-.2.5-1.3-.6-1 .6s.6 2.5 1 3.7c.5 6.8 1.9 13.3 5 19.5 3.7 7.3 9.2 12.2 16.7 15.3 2.4 1 5.5 1.4 5.9 4.9-.8 1.8-2.3 1.6-3.9 1.5-2.4-.7-4.7-.8-7.1-.1-12.5-.5-22-6.3-29.1-16.4-4-6.2-6-13-5.8-20.4.7-2.3.7-4.5 0-6.8 0-5.2 1.5-10.1 4-14.6 1.2-.6 1.7-2 2.7-2.8z" fill="#4c2532"/><path d="m71.1 140.4c7.2 7.5 15.3 13.5 25.9 15.3 1.1.2 2.2.1 3.3.2 2.2-.5 4.5-.5 6.7 0 1.4.1 2.9.4 4-.9 1.6-3 5.1-1.8 7.3-3.5 4.3-2 8.5-4.1 11.5-8 5.6-4.9 9.4-11 11.7-18 .4-1.3.5-2.9 2-3.7.4-.1.5.1.7.3.5.4.6.3.3-.3-.7-1.1-1.1-2.3-1.4-3.6-.2-5.3-.9-10.5-1.7-15.7.2-.5.5-.9.9-1.2 4.5 6.2 4.8 13.7 6.5 20.7 1 4.2.7 8.3.2 12.5-.2 4.8 1.3 9.3 2.7 13.8-7.5 7.6-16.1 13.3-26.7 15.6-1.8.4-3.5.8-5.3.6-3.9-.7-7.7-.6-11.6 0-16.4-1.8-29.2-9.2-37-24.1z" fill="#9b7a9f"/><path d="m239.3 143.4c-2.3 1.7-4.9.9-7.3.7s-1.4-2.5-1.4-3.9c-.1-14.5-.1-28.9-.1-43.4-6-1.3-12.1-.2-18.1-.6-2.1-.1-4.2.3-6.2-.3-.6-2.1-.9-4.2.2-6.3 19-.3 38.1-.3 57.1 0 2 5.4 1.3 6.5-3.9 6.6-6.5.2-12.9-.5-19.4.4l-.2.2-.3-.1c-1.4.3-1 1.5-1 2.3v42.5c.1.7.2 1.4.6 1.9z" fill="#5e2261"/><path d="m300.8 135.5c12.6.1 25.3.1 37.9.2 1.4 0 3.2-.9 4.4.8-10.9 1-21.9.1-32.8.5-2.6.1-5.3-.6-7.5.3-.2.3-.1.1 0 .1 13.5-.6 27-.7 40.4.1v4.9c-1 1-2.4.9-3.7 1-14.2 0-28.5 0-42.7 0-1.1 0-2.3 0-3.3-.7-.9-1.1-.8-2.4-.8-3.7 0-15.3 0-30.5 0-45.8 0-1.1 0-2.3.7-3.2 6.6-1.1 6.6-1.1 6.6 5.2v35.9c.1 1.4-.7 3.2.8 4.4z" fill="#5e2261"/><path d="m280.1 143.4c-2.1 1.8-4.6.5-6.8.8-1.5.2-1.8-.9-1.8-2.1 0-17.6.1-35.1.2-52.7 0-.2.5-.4.7-.5 2.2 1.4 4.8.1 7.1.8l-.1-.1c.6 16.2.1 32.3.3 48.5-.1 1.8-.5 3.6.4 5.3z" fill="#5e2361"/><path d="m198.4 143.4c-2.1 1.8-4.6.5-6.9.8-1.5.2-1.8-1-1.8-2.2.1-17.5.1-35 .2-52.5 0-.2.5-.4.7-.6 2.3 1.2 4.8.1 7.1.8l-.1-.1c.6 16.2.1 32.4.3 48.5.1 1.8-.4 3.6.5 5.3z" fill="#5e2361"/><path d="m293.7 89.9v52.5c.2.9 0 1.5-1.1 1-1-11.6-.4-23.1-.4-34.7 0-6.5-.8-13.1.5-19.6.5.2.8.4 1 .8z" fill="#58125b"/><path d="m292.6 143.4c.4-.3.7-.7 1.1-1h49.4c.3 1.7-.7 1.8-1.9 1.8-15.8 0-31.6 0-47.5-.1-.3.1-.7-.4-1.1-.7z" fill="#5b1c5e"/><path d="m263.6 89.9c-19.1 0-38.2 0-57.4 0-.3-.2-.3-.5-.3-.7s.2-.3.2-.3c19-.1 38-.2 57-.2.9 0 2-.2 2.1 1.2-.4.6-1 .6-1.6 0z" fill="#550858"/><path d="m293.7 89.9c-.3-.3-.6-.5-.9-.8 1.2-.8 2.5-.3 3.8-.5 3.3-.5 4.4.7 4.3 4.2-.2 14.2-.1 28.5-.1 42.7-2-1.2-1.2-3.1-1.2-4.8-.1-11.7-.3-23.4.1-35.2.1-4.6-1.4-6.4-6-5.6z" fill="#550857"/><g fill="#560d59"><path d="m198.4 143.4c-.9-.6-1-1.6-1-2.6.1-17.1.1-34.1.2-51.2.7.2 1.1.7 1.1 1.4-.1 17.5.6 34.9-.3 52.4z"/><path d="m280.1 143.4c-.9-.7-1-1.6-1-2.6.1-17.1.1-34.1.2-51.2.7.2 1.1.7 1 1.4 0 17.5.6 34.9-.2 52.4z"/><path d="m239.3 143.4c-1.4-1.1-1-2.6-1-4 0-12.8 0-25.6 0-38.4 0-1.5-.6-3.4 1.5-4.2 0 13.8-.1 27.6-.1 41.4-.1 1.7-.3 3.4-.4 5.2z"/></g><path d="m343.1 137.5c-13.5 0-27.1 0-40.6 0 0-.3 0-.6 0-1h40.6z" fill="#5b1c5e"/><path d="m263.6 89.9h1.8c.4 6.8.4 6.9-6.2 6.8-6.3 0-12.6-.1-19-.1 5.8-2.1 11.7-.8 17.6-.8 4.7.1 6.6-1.3 5.8-5.9z" fill="#5f1f62"/><path d="m206.2 95.7h19.8c1.5 0 3.3-.6 4.5 1-8.1-.1-16.2-.1-24.3-.2-.3-.2-.3-.4-.2-.6 0-.1.1-.2.2-.2z" fill="#601e63"/><path d="m121.8 70.4c-3.9-.3-8 1-11.9-.8 4.1-.4 8.1-1.9 11.9.8z" fill="#521151"/><path d="m206.2 95.7v.8c-1.9-2.6-1.9-5.1 0-7.7v1z" fill="#520055"/><path d="m197.7 89.7c-2.4 0-4.9 1.1-7.1-.8 2.4-.1 5-1.3 7.1.8z" fill="#550b58"/><path d="m279.4 89.7c-2.4 0-4.9 1.1-7.1-.8 2.4-.1 5-1.3 7.1.8z" fill="#550b58"/><path d="m165.2 138.5c-1.4-1.8-.8-3.8-.5-5.8 0-.1.3-.1.4-.1s.3.2.4.2c-.1 1.9-.2 3.8-.3 5.7z" fill="#4e024d"/><path d="m65.3 113.3c1.4 2.3 1.4 4.5 0 6.8-.7-2.3-.4-4.6 0-6.8z" fill="#400d21"/><path d="m72 95.8c-.1 1.7-1 2.7-2.7 2.9.6-1.3 1.3-2.6 1.9-3.9.3.3.6.7.8 1z" fill="#520d51"/><path d="m167.1 122.9c-1.2-1.9-1.2-3.8.1-5.7-.1 1.9-.1 3.8-.1 5.7z" fill="#4f034e"/><path d="m166.2 129.7c-.7-1.3-2-2.6.2-3.7-.1 1.3-.1 2.5-.2 3.7z" fill="#4c004c"/><path d="m165.4 149.1c-1.9-1.1-1.1-2.4-.2-3.7.1 1.2.1 2.5.2 3.7z" fill="#4c004d"/><path d="m166.4 113.1c-1.8-1.1-1.2-2.4-.3-3.7.1 1.2.2 2.5.3 3.7z" fill="#4f004e"/><path d="m118.7 152.1c-1.7 3.2-5.6.8-7.8 2.9-2.4-3.3-6.6-3.1-9.8-5-13.1-8-18.2-20.2-18.6-34.9-.4-1.3-.7-2.5.2-3.7 4-16.2 14-26.7 30.2-30.9 3.1-.4 6.1-.6 8.6 1.6-.4 2.9-3.1 2.3-4.8 2.9-8.8 3-16.5 7.3-20.5 16.2-6.7 12.3-6.1 24.3 1.6 36 1.7 2.8 3.9 5 6.7 6.7 2.8 2.5 6.1 4.2 9.6 5.6 1.7.6 3.6.9 4.6 2.6z" fill="#fdfdfd"/><path d="m95.4 100.7c4-9 11.6-13.6 20.5-16.7 1.9-.7 4.2-.2 5.7-1.9 9.5 3.6 16.1 10.3 20.6 19.3-.2.1-.3.3-.5.4-2.9-.6-3.6-3.7-5.8-5.2-.7-.8-1.5-1.4-2.5-1.9-.4-.2-.8-.4-1.2-.6-3.6-1.9-7.6-2-11.5-2.9-2.1 0-4.2 0-6.3.1-5.6.9-10.4 3.3-14.6 7-1.2 1.1-2.3 2.8-4.4 2.4z" fill="#9b799f"/><path d="m148.9 134.6c-.1-4.2-.1-8.3-.2-12.5 2 4.1 1.4 8.3.2 12.5z" fill="#571d56"/><path d="m163.9 143.5c-.6-1-.6-2 0-3.3.6 1.3.7 2.3 0 3.3z" fill="#571d56"/><path d="m82.8 111.4c-.1 1.2-.1 2.5-.2 3.7-1.2-1.3-1.5-2.5.2-3.7z" fill="#3b0019"/><path d="m136.1 95.6c2.6 1.4 3.8 4.1 5.6 6.2 2.4 5.5 2.5 11.4 2.4 17.3.4.9.6 1.9-.2 2.7-2 5.5-3.7 11.2-7.3 16-1.8 2.4-3.7 4.7-6.2 6.5-1.6 1.2-3.2 2.3-5.1 2.9-1.5.4-3 .4-4.5.3-.8-.1-1.5-.3-2.2-.7-5-3.3-9.5-6.8-12.1-12.6-7.5-16.9 2.4-36.2 20.8-39.7 3-.1 6-.2 8.8 1.1z" fill="#fefefe"/><path d="m119.2 146.2c.5.1 1 .1 1.5.2 1.6.5 3.3 1 4.8-.4 1.6-.6 3.3-1.1 4.9-1.7-3 4-6.9 6.6-11.6 7.8-5.3-1.7-11-2.8-14.7-7.6-.3-.5-.3-1 .2-1.4 5.2-.3 10 1.9 14.9 3.1z" fill="#5f2461"/><path d="m143.9 121.8c.1-.9.2-1.8.2-2.7 1.1.9.8 2.2.8 3.4 0 .6-.4.7-.8.2-.2-.2-.1-.6-.2-.9z" fill="#97749b"/><path d="m119.2 146.2c-5.4 1-10.1-1.5-15.1-2.9-2.9-.7-4.4-3.3-6.6-4.8-8.9-11.3-9.7-24.7-2.1-37.8 5.3-5 10.9-9.5 18.5-10.6 2.5.4 5.1.5 7.6 0 4 .9 8.4.8 11.8 3.7-1.4 1.7-3.4.7-5.1 1.1-.6.2-1.3.4-1.8.8-18.5 3.8-27.3 26.9-16.6 41.9 2.1 2.9 4.7 4.9 7.9 6.5 1 .4 1.5 1 1.5 2.1z" fill="#4c2532"/><path d="m97.5 138.5c2.6 1 4.7 2.8 6.6 4.8 0 .4 0 .8-.1 1.1-3.1-.9-4.8-3.4-6.5-5.9z" fill="#632964"/><path d="m126.4 95.6c.4-.3.7-.6 1.1-1 2.1-1.1 4.6.4 6.7-.9 1 .3 1.6.9 1.9 1.8-3.2.1-6.4.1-9.7.1z" fill="#816975"/><path d="m121.5 90.1c-2.5 1.3-5.1 1.3-7.6 0z" fill="#471f2a"/><path d="m134.2 93.8c-2.1 1.7-4.5.4-6.7.9 1.7-1.7 3.9-.5 5.8-.9.3-.1.6-.1.9 0z" fill="#411022"/><path d="m125.4 146c-1.5 2-3.1 1.6-4.8.4 1.6-.2 3.2-.3 4.8-.4z" fill="#520552"/><g fill="#5e2361"><path d="m121.9 209.1 20.8 59.5c3.5 9.6 6.3 18.4 8.5 27.1h.7c2.4-8.8 5.5-17.5 9-27.1l20.6-59.5h20.1l-41.7 105.9h-18.4l-40.3-105.9z"/><path d="m273.1 315v-38.7h-66.1v-12.7l63.5-90.8h20.8v88.4h19.9v15.1h-19.9v38.7zm0-53.8v-47.5c0-7.4.2-14.9.7-22.3h-.7c-4.4 8.3-7.9 14.4-11.8 21l-34.8 48.4v.4z"/></g></svg>